[img]http://img15.imageshack.us/img15/8163/greatgambler.jpg[/img]




[img]http://img819.imageshack.us/img819/5598/roadies1.jpg[/img]



[b][size=4]MTV Roadies 9 : Everything or Nothing is the ninth season of MTV Roadies, a reality television show aired on MTV India . The auditions started on 16 September from Pune following with Audition in Kolkata , Delhi, Chandhigarh and Hyderabad. Part of the season will take place in United States of America. The show started airing on MTV India from 7th January 2012 and every new episode airs on Saturdays at 7 P.M. IST.[/size][/b]


[img]http://img18.imageshack.us/img18/6966/infoum.png[/img]


[b]General[/b]
[b]Format                           : AVI[/b]
[b]Format/Info                      : Audio Video Interleave[/b]
[b]File size                        : 267 MiB[/b]
[b]Duration                         : 42mn 42s[/b]
[b]Overall bit rate                 : 873 Kbps[/b]
[b]Movie name                       : Roadies 9 - Pune Auditions [1] [Uncensored] by !!!---greatgambler---!!![/b]
[b]Encoded by                       : !!!---greatgambler---!!![/b]
[b]Genre                            : Reality Show[/b]
[b]Writing application              : MEncoder[/b]
[b]Original source form/Name        : Television[/b]
[b]ILGU                             : http://img15.imageshack.us/img15/8163/greatgambler.jpg[/b]
[b]Video[/b]
[b]ID                               : 0[/b]
[b]Format                           : MPEG-4 Visual[/b]
[b]Format profile                   : Advanced Simple@L5[/b]
[b]Format settings, BVOP            : 2[/b]
[b]Format settings, QPel            : No[/b]
[b]Format settings, GMC             : No warppoints[/b]
[b]Format settings, Matrix          : Default (H.263)[/b]
[b]Codec ID                         : XVID[/b]
[b]Codec ID/Hint                    : XviD[/b]
[b]Duration                         : 42mn 42s[/b]
[b]Bit rate                         : 765 Kbps[/b]
[b]Width                            : 600 pixels[/b]
[b]Height                           : 450 pixels[/b]
[b]Display aspect ratio             : 4:3[/b]
[b]Frame rate                       : 25.000 fps[/b]
[b]Color space                      : YUV[/b]
[b]Chroma subsampling               : 4:2:0[/b]
[b]Bit depth                        : 8 bits[/b]
[b]Scan type                        : Progressive[/b]
[b]Compression mode                 : Lossy[/b]
[b]Bits/(Pixel*Frame)               : 0.113[/b]
[b]Stream size                      : 234 MiB (88%)[/b]
[b]Writing library                  : XviD 1.2.1 (UTC 2008-12-04)[/b]
[b]Audio[/b]
[b]ID                               : 1[/b]
[b]Format                           : MPEG Audio[/b]
[b]Format version                   : Version 1[/b]
[b]Format profile                   : Layer 3[/b]
[b]Mode                             : Joint stereo[/b]
[b]Mode extension                   : MS Stereo[/b]
[b]Codec ID                         : 55[/b]
[b]Codec ID/Hint                    : MP3[/b]
[b]Duration                         : 42mn 41s[/b]
[b]Bit rate mode                    : Constant[/b]
[b]Bit rate                         : 96.0 Kbps[/b]
[b]Channel(s)                       : 2 channels[/b]
[b]Sampling rate                    : 44.1 KHz[/b]
[b]Compression mode                 : Lossy[/b]
[b]Delay relative to video          : 40ms[/b]
[b]Stream size                      : 29.3 MiB (11%)[/b]
[b]Alignment                        : Aligned on interleaves[/b]
[b]Interleave, duration             : 26 ms (0.65 video frame)[/b]
[b]Interleave, preload duration     : 522 ms[/b]
[b]Writing library                  : LAME3.98[/b]
[b]Language                         : Hindi[/b]



[img]http://img231.imageshack.us/img231/3671/screenshoots.png[/img]


[img]http://img442.imageshack.us/img442/8182/vlcsnap2012012512h57m30.png[/img]


[img]http://img26.imageshack.us/img26/5039/vlcsnap2012012512h57m25.png[/img]


[img]http://img854.imageshack.us/img854/5219/vlcsnap2012012512h57m48.png[/img]


[img]http://img341.imageshack.us/img341/8280/vlcsnap2012012512h58m01.png[/img]


[img]http://img52.imageshack.us/img52/455/vlcsnap2012012512h58m09.png[/img]


[img]http://img839.imageshack.us/img839/9273/vlcsnap2012012512h58m29.png[/img]